# AST/ASF file generated using VICON BodyLanguage
# -----------------------------------------------
:version 1.10
:name VICON
:units
  mass 1.0
  length 0.45
  angle deg
:documentation
   .ast/.asf automatically generated from VICON data using
   VICON BodyBuilder and BodyLanguage model FoxedUp or BRILLIANT.MOD
:root
   order TX TY TZ RX RY RZ
   axis XYZ
   position 0 0 0  
   orientation 0 0 0 
:bonedata
  begin
     id 1 
     name lhipjoint
     direction 0.690799 -0.707083 0.151096 
     length 2.54797 
     axis 0 0 0  XYZ
  end
  begin
     id 2 
     name lfemur
     direction 0.34202 -0.939693 0  
     length 7.21646  
     axis 0 0 20  XYZ
    dof rx ry rz
    limits (-160.0 20.0)
           (-70.0 70.0)
           (-60.0 70.0)
  end
  begin
     id 3 
     name ltibia
     direction 0.34202 -0.939693 0   
     length 8.16759   
     axis 0 0 20   XYZ
    dof rx
    limits (-10.0 170.0)
  end
  begin
     id 4 
     name lfoot
     direction 0.0487203 -0.133858 0.989802   
     length 1.93375   
     axis -90 7.62852e-016 20   XYZ
    dof rx rz
    limits (-45.0 90.0)
           (-70.0 20.0)
  end
  begin
     id 5 
     name ltoes
     direction 1.53453e-011 -4.21783e-011 1   
     length 0.979747   
     axis -90 7.62852e-016 20   XYZ
    dof rx
    limits (-90.0 20.0)
  end
  begin
     id 6 
     name rhipjoint
     direction -0.694693 -0.703425 0.150315   
     length 2.56122  
     axis 0 0 0  XYZ 
  end
  begin
     id 7 
     name rfemur
     direction -0.34202 -0.939693 0   
     length 7.36786   
     axis 0 0 -20   XYZ
    dof rx ry rz
    limits (-160.0 20.0)
           (-70.0 70.0)
           (-70.0 60.0)
  end
  begin
     id 8 
     name rtibia
     direction -0.34202 -0.939693 0   
     length 8.07288   
     axis 0 0 -20   XYZ
    dof rx
    limits (-10.0 170.0)
 end
 begin
     id 9 
     name rfoot
     direction -0.0428397 -0.117701 0.992125   
     length 1.88295  
     axis -90 -7.62852e-016 -20   XYZ
    dof rx rz
    limits (-45.0 90.0)
           (-20.0 70.0)
  end
  begin
     id 10 
     name rtoes
     direction -1.53456e-011 -4.2187e-011 1   
     length 0.955578   
     axis -90 -7.62852e-016 -20   XYZ
    dof rx
    limits (-90.0 20.0)
  end
  begin
     id 11 
     name lowerback
     direction 0.0288145 0.999398 -0.0193241   
     length 1.92149   
     axis 0 0 0   XYZ
    dof rx ry rz
    limits (-20.0 45.0)
           (-30.0 30.0)
           (-30.0 30.0)
  end
  begin
     id 12 
     name upperback
     direction 0.0233784 0.998099 0.0570278   
     length 1.90435   
     axis 0 0 0   XYZ
    dof rx ry rz
    limits (-20.0 45.0)
           (-30.0 30.0)
           (-30.0 30.0)
  end
  begin
     id 13 
     name thorax
     direction 0.0096694 0.997833 0.0650817   
     length 1.9111   
     axis 0 0 0   XYZ
    dof rx ry rz
    limits (-20.0 45.0)
           (-30.0 30.0)
           (-30.0 30.0)
  end
  begin
     id 14 
     name lowerneck
     direction 0.00516803 0.999916 0.0118722   
     length 1.74664   
     axis 0 0 0   XYZ
    dof rx ry rz
    limits (-20.0 45.0)
           (-30.0 30.0)
           (-30.0 30.0)
  end
  begin
     id 15 
     name upperneck
     direction -0.0510851 0.996117 -0.071696   
     length 1.68498   
     axis 0 0 0   XYZ
    dof rx ry rz
    limits (-20.0 45.0)
           (-30.0 30.0)
           (-30.0 30.0)
  end
  begin
     id 16
     name head
     direction -0.019188 0.999436 -0.0275702  
     length 1.83483  
     axis 0 0 0   XYZ
    dof rx ry rz
    limits (-20.0 45.0)
           (-30.0 30.0)
           (-30.0 30.0)
  end
  begin
     id 17 
     name lclavicle
     direction 0.967006 0.248456 -0.0562957  
     length 3.39395  
     axis 0 0 0   XYZ
    dof ry rz
    limits (-20.0 10.0)
           (0.0 20.0)
  end
  begin
     id 18 
     name lhumerus
     direction 1 -4.48962e-011 -5.62711e-019   
     length 5.24318   
     axis 180 -30 -90   XYZ
    dof rx ry rz
    limits (-60.0 90.0)
           (-90.0 90.0)
           (-90.0 90.0)
  end
  begin
     id 19
     name lradius
     direction 1 -4.48966e-011 7.90625e-027   
     length 2.98999   
     axis 180 -30 -90   XYZ
    dof rx
    limits (-10.0 170.0)
  end
  begin
     id 20
     name lwrist
     direction 1 -4.48959e-011 1.61068e-026   
     length 1.49499   
     axis -9.31229e-015 90 90   XYZ
    dof ry
    limits (-180.0 0.0)
 end
  begin
     id 21 
     name lhand
     direction 1 -4.49017e-011 3.22136e-026   
     length 0.726745   
     axis -2.0555e-014 90 90   XYZ
    dof rx rz
    limits (-90.0 90.0)
           (-45.0 45.0)
  end
  begin
     id 22 
     name lfingers
     direction 1 -4.4898e-011 6.44272e-026   
     length 0.58592   
     axis -4.11101e-014 90 90   XYZ
    dof rx
    limits (0.0 90.0)
  end
  begin
     id 23
     name lthumb
     direction 0.707107 -6.34922e-011 0.707107   
     length 0.841268   
     axis -90 45 2.85299e-015   XYZ
    dof rx rz
    limits (-45.0 45.0)
           (-45.0 45.0)
  end
  begin
     id 24 
     name rclavicle
     direction -0.972232 0.230238 0.0419005   
     length 3.40416  
     axis 0 0 0   XYZ 
    dof ry rz
    limits (-10.0 20.0)
           (-20.0 0.0)
  end
  begin
     id 25 
     name rhumerus
     direction -1 -4.48976e-011 2.48487e-027  
     length 5.37045   
     axis 180 30 90   XYZ
    dof rx ry rz
    limits (-90.0 60.0)
           (-90.0 90.0)
           (-90.0 90.0)
  end
  begin
     id 26 
     name rradius
     direction -1 -4.48942e-011 7.87951e-027   
     length 2.92792   
     axis 180 30 90   XYZ
    dof rx
    limits (-10.0 170.0)
  end
  begin
     id 27 
     name rwrist
     direction -1 -4.48969e-011 1.61068e-026   
     length 1.46396   
     axis -9.31229e-015 -90 -90   XYZ
    dof ry
    limits (-180.0 0.0)
  end
  begin
     id 28
     name rhand
     direction -1 -4.49043e-011 3.22136e-026   
     length 0.784497   
     axis -2.0555e-014 -90 -90   XYZ
    dof rx rz
    limits (-90.0 90.0)
           (-45.0 45.0)
  end
  begin
     id 29
     name rfingers
     direction -1 -4.48823e-011 6.44272e-026   
     length 0.632482   
     axis -4.11101e-014 -90 -90   XYZ
    dof rx
    limits (0.0 90.0)
  end
  begin
     id 30
     name rthumb
     direction -0.707107 -6.34923e-011 0.707107   
     length 0.908121   
     axis -90 -45 -2.85299e-015   XYZ
    dof rx rz
    limits (-45.0 45.0)
           (-45.0 45.0)
  end
:hierarchy
  begin
    root lhipjoint rhipjoint lowerback
    lhipjoint lfemur
    lfemur ltibia
    ltibia lfoot
    lfoot ltoes
    rhipjoint rfemur
    rfemur rtibia
    rtibia rfoot
    rfoot rtoes
    lowerback upperback
    upperback thorax
    thorax lowerneck lclavicle rclavicle
    lowerneck upperneck
    upperneck head
    lclavicle lhumerus
    lhumerus lradius
    lradius lwrist
    lwrist lhand lthumb
    lhand lfingers
    rclavicle rhumerus
    rhumerus rradius
    rradius rwrist
    rwrist rhand rthumb
    rhand rfingers
  end

#!OML:ASF E:\Style6\Style6.ASF
:FULLY-SPECIFIED
:DEGREES
1
root 1.27429 15.9972 -1.14834 8.67662 -9.20822 3.51373
lowerback 23.9459 -1.2167 9.63213
upperback 14.4243 0.158685 6.67342
thorax 2.81572 0.32366 1.79827
lowerneck 0.795584 -0.245965 4.96383
upperneck -19.7362 -3.15034 -17.2756
head -6.34458 -0.701699 -6.316
rclavicle 5.08889e-014 1.06549e-013
rhumerus -5.46034 3.24411 -54.9862
rradius 54.3072
rwrist -24.2986
rhand 0.744039 6.83088
rfingers 7.12502
rthumb 26.3028 -21.3655
lclavicle 5.08889e-014 1.06549e-013
lhumerus -6.39272 -41.491 59.1734
lradius 54.2614
lwrist 53.6133
lhand 11.2449 20.1121
lfingers 7.12502
lthumb 36.3061 46.3528
rfemur -51.6295 -18.5749 16.7541
rtibia 63.7716
rfoot -13.52 10.9622
rtoes -7.73492
lfemur -46.12 19.3883 -29.364
ltibia 64.0438
lfoot -21.8936 -0.540823
ltoes -12.2113
2
root 1.27165 15.9954 -1.15262 8.87847 -9.15196 3.46114
lowerback 24.0304 -1.23716 9.5969
upperback 14.4171 0.139545 6.65405
thorax 2.76476 0.311036 1.80088
lowerneck 0.863818 -0.189368 4.80484
upperneck -19.9122 -3.08955 -17.1915
head -6.404 -0.655193 -6.26865
rclavicle -9.54166e-015 3.18055e-014
rhumerus -5.38347 3.36335 -54.8214
rradius 54.4161
rwrist -23.7558
rhand 0.648829 6.96578
rfingers 7.12502
rthumb 26.2117 -21.2442
lclavicle -9.54166e-015 3.18055e-014
lhumerus -5.62553 -41.7005 58.5926
lradius 54.5834
lwrist 52.7891
lhand 11.722 20.7257
lfingers 7.12502
lthumb 36.7577 46.8524
rfemur -51.8807 -18.5775 16.8999
rtibia 63.8035
rfoot -13.5891 10.8926
rtoes -8.38347
lfemur -46.4155 19.3686 -29.3757
ltibia 64.0925
lfoot -21.8922 -0.601121
ltoes -11.5096
3
root 1.26887 15.9939 -1.1567 9.12001 -9.0307 3.3934
lowerback 24.0622 -1.28105 9.57722
upperback 14.4014 0.0883374 6.66934
thorax 2.72916 0.282281 1.83931
lowerneck 0.847914 -0.118368 4.64975
upperneck -19.9772 -3.00509 -17.175
head -6.41061 -0.600803 -6.24204
rclavicle 3.81667e-014 1.27222e-014
rhumerus -5.33129 3.43908 -54.6193
rradius 54.6776
rwrist -23.0334
rhand 0.50774 6.95672
rfingers 7.12502
rthumb 26.0766 -21.2733
lclavicle 3.81667e-014 1.27222e-014
lhumerus -4.92081 -41.9298 58.0981
lradius 54.9394
lwrist 52.0113
lhand 11.9922 21.3673
lfingers 7.12502
lthumb 37.0133 47.4283
rfemur -52.1558 -18.6391 17.0765
rtibia 63.8114
rfoot -13.5078 10.9121
rtoes -7.6409
lfemur -46.7542 19.3174 -29.385
ltibia 64.1435
lfoot -21.8667 -0.749531
ltoes -11.0804
4
root 1.26598 15.9916 -1.16254 9.36588 -8.86045 3.39139
lowerback 24.0578 -1.32031 9.56032
upperback 14.3875 0.0390867 6.64484
thorax 2.71275 0.258191 1.83181
lowerneck 0.851965 -0.0913541 4.5227
upperneck -20.0584 -2.97145 -17.0916
head -6.43213 -0.576598 -6.1954
rclavicle 4.29375e-014 -4.77083e-015
rhumerus -5.37434 3.50358 -54.4014
rradius 55.0526
rwrist -22.147
rhand 0.377644 6.98139
rfingers 7.12502
rthumb 25.952 -21.2669
lclavicle 4.29375e-014 -4.77083e-015
lhumerus -4.08586 -42.3285 57.4361
lradius 55.3148
lwrist 51.1728
lhand 12.1125 21.9991
lfingers 7.12502
lthumb 37.1271 48.0306
rfemur -52.4443 -18.7556 17.1917
rtibia 63.8128
rfoot -13.4852 10.8494
rtoes -7.54571
lfemur -47.1044 19.207 -29.4652
ltibia 64.1939
lfoot -21.8176 -0.913736
ltoes -10.8916
5
root 1.26437 15.9893 -1.1687 9.58827 -8.73102 3.32561
lowerback 24.1674 -1.39154 9.45626
upperback 14.4144 -0.0568997 6.63487
thorax 2.68494 0.203425 1.90059
lowerneck 0.663286 0.0231816 4.49275
upperneck -20.1457 -2.82584 -17.1113
head -6.40745 -0.506401 -6.2072
rclavicle 3.49861e-014 3.18055e-015
rhumerus -5.12885 3.73876 -54.2302
rradius 55.3639
rwrist -21.08
rhand 0.149152 6.92918
rfingers 7.12502
rthumb 25.7332 -21.351
lclavicle 3.49861e-014 3.18055e-015
lhumerus -3.24976 -42.5769 56.6793
lradius 55.6566
lwrist 50.2155
lhand 12.1912 22.5449
lfingers 7.12502
lthumb 37.2016 48.557
rfemur -52.693 -18.8093 17.3569
rtibia 63.786
rfoot -13.4356 10.7145
rtoes -8.30149
lfemur -47.4293 19.1538 -29.4764
ltibia 64.2581
lfoot -21.7659 -0.98924
ltoes -10.8434
